<svg xmlns="http://www.w3.org/2000/svg" viewBox="0 0 1448 1086" role="img" aria-label="Pastel floral frame">
<defs>
  <linearGradient id="pink" x1="0" x2="1"><stop stop-color="#f7c7d5" stop-opacity=".56"/><stop offset=".55" stop-color="#ef9fb8" stop-opacity=".42"/><stop offset="1" stop-color="#f8dbe5" stop-opacity=".10"/></linearGradient>
  <linearGradient id="blue" x1="0" x2="1"><stop stop-color="#d9e8fb" stop-opacity=".55"/><stop offset=".55" stop-color="#9bc0ef" stop-opacity=".38"/><stop offset="1" stop-color="#edf5ff" stop-opacity=".10"/></linearGradient>
  <radialGradient id="petal" cx=".5" cy=".35" r=".75"><stop stop-color="#fff" stop-opacity=".95"/><stop offset=".48" stop-color="#f9d3df" stop-opacity=".94"/><stop offset="1" stop-color="#ef9db4" stop-opacity=".90"/></radialGradient>
  <radialGradient id="gold" cx=".5" cy=".5" r=".7"><stop stop-color="#fff8cf"/><stop offset=".6" stop-color="#efd68a"/><stop offset="1" stop-color="#cda95a"/></radialGradient>
  <filter id="soft"><feGaussianBlur stdDeviation="1.2"/></filter>
  <filter id="shadow"><feDropShadow dx="0" dy="2" stdDeviation="3" flood-color="#567" flood-opacity=".08"/></filter>
</defs>
<g opacity=".86" filter="url(#shadow)">
  <path d="M8 312 C48 258 74 194 98 128 C115 82 142 42 184 11" fill="none" stroke="#8da888" stroke-width="8" stroke-linecap="round"/>
  <path d="M54 232 C33 194 20 158 13 119 M86 170 C127 149 151 126 172 99 M111 99 C92 67 83 44 77 18" fill="none" stroke="#9cb497" stroke-width="5" stroke-linecap="round"/>
  <g fill="#9db596" opacity=".82"><ellipse cx="36" cy="267" rx="28" ry="11" transform="rotate(-28 36 267)"/><ellipse cx="54" cy="216" rx="30" ry="12" transform="rotate(28 54 216)"/><ellipse cx="88" cy="162" rx="28" ry="11" transform="rotate(-18 88 162)"/><ellipse cx="132" cy="118" rx="27" ry="11" transform="rotate(22 132 118)"/><ellipse cx="153" cy="67" rx="23" ry="9" transform="rotate(-24 153 67)"/></g>
  <g transform="translate(75 112)"><ellipse cy="-43" rx="34" ry="51" fill="url(#petal)"/><ellipse cx="42" cy="-13" rx="34" ry="51" fill="url(#petal)" transform="rotate(72 42 -13)"/><ellipse cx="26" cy="39" rx="34" ry="51" fill="url(#petal)" transform="rotate(144 26 39)"/><ellipse cx="-28" cy="39" rx="34" ry="51" fill="url(#petal)" transform="rotate(216 -28 39)"/><ellipse cx="-42" cy="-13" rx="34" ry="51" fill="url(#petal)" transform="rotate(288 -42 -13)"/><circle r="17" fill="#d66988"/><path d="M0 0 C14 18 27 38 38 62" stroke="#d66988" stroke-width="4" fill="none"/><g fill="#efd16e"><circle cx="38" cy="63" r="4"/><circle cx="44" cy="68" r="3"/><circle cx="33" cy="70" r="3"/></g></g>
  <g transform="translate(145 66) scale(.7)"><ellipse cy="-43" rx="34" ry="51" fill="url(#petal)"/><ellipse cx="42" cy="-13" rx="34" ry="51" fill="url(#petal)" transform="rotate(72 42 -13)"/><ellipse cx="26" cy="39" rx="34" ry="51" fill="url(#petal)" transform="rotate(144 26 39)"/><ellipse cx="-28" cy="39" rx="34" ry="51" fill="url(#petal)" transform="rotate(216 -28 39)"/><ellipse cx="-42" cy="-13" rx="34" ry="51" fill="url(#petal)" transform="rotate(288 -42 -13)"/><circle r="17" fill="#d66988"/></g>
  <g transform="translate(42 210) scale(.58)"><ellipse cy="-43" rx="34" ry="51" fill="url(#petal)"/><ellipse cx="42" cy="-13" rx="34" ry="51" fill="url(#petal)" transform="rotate(72 42 -13)"/><ellipse cx="26" cy="39" rx="34" ry="51" fill="url(#petal)" transform="rotate(144 26 39)"/><ellipse cx="-28" cy="39" rx="34" ry="51" fill="url(#petal)" transform="rotate(216 -28 39)"/><ellipse cx="-42" cy="-13" rx="34" ry="51" fill="url(#petal)" transform="rotate(288 -42 -13)"/><circle r="17" fill="#d66988"/></g>
</g>
<g fill="#f1a8bb" opacity=".42"><ellipse cx="178" cy="175" rx="7" ry="15" transform="rotate(34 178 175)"/><ellipse cx="212" cy="270" rx="6" ry="13" transform="rotate(-25 212 270)"/><ellipse cx="1225" cy="126" rx="6" ry="13" transform="rotate(28 1225 126)"/><ellipse cx="1320" cy="310" rx="7" ry="15" transform="rotate(-32 1320 310)"/></g>
<g fill="none" stroke="#e3b86b" stroke-width="2.5" opacity=".42" stroke-linecap="round"><path d="M0 315 h62 c13 0 13-13 26-13 h38 c13 0 13 13 26 13 h50"/><path d="M0 334 h36 c11 0 11 10 22 10 h57 c11 0 11-10 22-10 h48"/><path d="M1262 548 h54 c12 0 12-13 24-13 h40 c12 0 12 13 24 13 h44"/><path d="M1296 568 h42 c10 0 10 10 20 10 h50 c10 0 10-10 20-10 h20"/></g>
<path d="M-80 700 C110 610 260 725 430 700 C620 672 720 790 925 760 C1115 733 1270 665 1455 700 C1535 716 1600 748 1680 770" fill="none" stroke="url(#pink)" stroke-width="76" stroke-linecap="round" filter="url(#soft)"/>
<path d="M-95 770 C95 685 275 810 450 775 C640 738 780 850 970 818 C1160 788 1315 725 1485 755 C1558 768 1615 798 1680 824" fill="none" stroke="url(#blue)" stroke-width="88" stroke-linecap="round" filter="url(#soft)"/>
<path d="M-80 825 C125 752 300 855 490 824 C675 793 820 890 1015 855 C1195 824 1340 785 1498 812" fill="none" stroke="#fff" stroke-opacity=".46" stroke-width="28" stroke-linecap="round"/>
<path d="M1422 100 C1350 210 1388 315 1424 400 C1460 486 1408 585 1420 680" fill="none" stroke="#b9d4f6" stroke-opacity=".28" stroke-width="50" stroke-linecap="round" filter="url(#soft)"/><path d="M1442 115 C1385 208 1414 305 1440 386 C1467 470 1431 556 1440 638" fill="none" stroke="#e2eefc" stroke-opacity=".7" stroke-width="18" stroke-linecap="round"/>
<g transform="translate(1320 770)" opacity=".70" filter="url(#shadow)"><path d="M-6 280 C34 222 82 166 142 111 C180 76 216 49 260 27" fill="none" stroke="#8ea083" stroke-width="6" stroke-linecap="round"/><path d="M76 192 C47 169 25 141 8 112" fill="none" stroke="#9aaa8d" stroke-width="4"/><g fill="#96aa8e" opacity=".8"><ellipse cx="30" cy="238" rx="26" ry="10" transform="rotate(-30 30 238)"/><ellipse cx="82" cy="185" rx="28" ry="11" transform="rotate(26 82 185)"/><ellipse cx="147" cy="120" rx="26" ry="10" transform="rotate(-19 147 120)"/><ellipse cx="214" cy="69" rx="23" ry="9" transform="rotate(21 214 69)"/></g><g transform="translate(125 154)"><g fill="url(#gold)" stroke="#d1b15f" stroke-width="1"><ellipse cy="-48" rx="14" ry="40"/><ellipse cy="48" rx="14" ry="40"/><ellipse cx="48" rx="40" ry="14"/><ellipse cx="-48" rx="40" ry="14"/><ellipse cx="34" cy="-34" rx="14" ry="40" transform="rotate(45 34 -34)"/><ellipse cx="-34" cy="34" rx="14" ry="40" transform="rotate(45 -34 34)"/><ellipse cx="-34" cy="-34" rx="14" ry="40" transform="rotate(-45 -34 -34)"/><ellipse cx="34" cy="34" rx="14" ry="40" transform="rotate(-45 34 34)"/></g><circle r="19" fill="#d6b45f"/></g><g transform="translate(215 82) scale(.58)"><g fill="url(#gold)" stroke="#d1b15f" stroke-width="1"><ellipse cy="-48" rx="14" ry="40"/><ellipse cy="48" rx="14" ry="40"/><ellipse cx="48" rx="40" ry="14"/><ellipse cx="-48" rx="40" ry="14"/><ellipse cx="34" cy="-34" rx="14" ry="40" transform="rotate(45 34 -34)"/><ellipse cx="-34" cy="34" rx="14" ry="40" transform="rotate(45 -34 34)"/><ellipse cx="-34" cy="-34" rx="14" ry="40" transform="rotate(-45 -34 -34)"/><ellipse cx="34" cy="34" rx="14" ry="40" transform="rotate(-45 34 34)"/></g><circle r="19" fill="#d6b45f"/></g></g>
</svg>